<?xml version="1.0" encoding="utf-8"?>
<!-- Generator: Adobe Illustrator 25.4.1, SVG Export Plug-In . SVG Version: 6.00 Build 0)  -->
<svg version="1.1" id="Lag_1" xmlns="http://www.w3.org/2000/svg" xmlns:xlink="http://www.w3.org/1999/xlink" x="0px" y="0px"
	 viewBox="0 0 127.8 190.7" style="enable-background:new 0 0 127.8 190.7;" xml:space="preserve">
<style type="text/css">
	.st0{fill:#F7E8B6;}
	.st1{fill:none;stroke:#231F20;stroke-width:3;stroke-linecap:round;stroke-linejoin:round;}
	.st2{fill:none;stroke:#231F20;stroke-width:3;stroke-miterlimit:10;}
	.st3{fill:#050504;}
</style>
<g id="Lag_3">
	<path class="st0" d="M107.3,136.7c0,0-20.1-14-20.1-18.4s-0.1-5.2,2.6-5.1s10.4-0.3,16.8,3.4s6.2-1.2,10.2-0.7s8.9,3.5,8.9,3.5
		L107.3,136.7"/>
	<path class="st0" d="M51.2,189.2h-33c0,0-11.7-2.6-13.2-16.7s-0.8-13.6-0.8-13.6s7.2-2.1,16.7,1.5s18.3-5.1,29.4-4
		s14.9,2.5,14.9,2.5v13.9C65.2,172.8,65.5,187.9,51.2,189.2"/>
</g>
<g id="Lag_1_00000008846366683880806760000002598255084546513327_">
	<path class="st1" d="M122.5,183.6c-10.8-1.5-21.7-1.3-32.4,0.6"/>
	<path class="st1" d="M106,137c16.5-10.6,17.7-15.7,19.2-17.8c0.5-0.9,0.9-1.8,1.2-2.7c-1.6-24.8-6.6-35.1-6.6-35.1l-25.7,0.8
		c-8.4,16.7-5.8,29.6-5.7,36.7s17,18.1,17,18.1l0.9,44.7"/>
	<path class="st1" d="M96.2,91.5c0,0-1.6,3.3-0.6,5.8c0.9,2.5-0.7,6.2-1.6,7.5"/>
	<path class="st2" d="M87.2,114.8c3.1-0.8,6.3-1,9.5-0.7c7,1.2,12.4,4.2,16.9,2.4c3.1-1.3,8.1-0.2,11.9,1.1"/>
</g>
<g id="Lag_2_00000176759917340983840040000007743096967811917955_">
	<path class="st2" d="M19.8,14.3V37c0,0.7,0.1,1.7,0.1,2.9c0.1,6.7,0.1,11.9-1.6,15.9c-2.9,6.8-8.9,5.3-12.8,12.8
		c-1.7,3.3-1.9,6-2.2,10.4c-0.6,9.8-1.2,18.8-1.8,28.5c0.8,20.1,1.7,40.2,2.5,60.3c0,0,0.5,20.9,15.8,21.2s33,0,33,0
		s12.5,1.4,12.2-20.3c0-1.2,0-2.4-0.1-3.8c-0.3-10.3-1.2-27.2-1.6-61c-0.3-24.8,0.5-31.6-5-36.2c-2.9-2.4-8.6-5.2-11.1-11.9
		c-1-2.8-1.7-6.8-2-8.3c-0.7-3.9-0.9-7-0.9-8.9c0-12.2-0.3-30.2-0.3-30.2s0-0.1,0-0.4c0-0.3,0-1.3,0-1.4c-0.2-1.2-0.5-2.3-1.1-3.3
		c-1.3-2-5-1.3-12-1.5c-6.5-0.2-8.5-0.9-10,0.7c-0.9,0.9-1,2.5-1.2,5.7C19.7,10.7,19.8,12.8,19.8,14.3z"/>
	<path class="st1" d="M46.9,112.5l0.7,37.6c-6.1,0.8-12.3,0.9-18.4,0.3c-8.8-0.8-17.4-3.4-25.2-7.6L2.4,101c3,2.3,6.3,4.3,9.8,5.8
		C25.9,113,41.1,112.8,46.9,112.5z"/>
	<path class="st2" d="M19.9,8.9c0,0,12.5,7.1,24.3-0.4l0.1,8.9c0,0-12.2,7.4-24.4,1.7V8.9z"/>
	<path class="st3" d="M17,121.9c-0.2-1.1,0.1-2.2,1.2-2.6s1.4,1,2.2,1.5c1.1,0.5,1.6,1.5,2.3,2.4c0.5,0.6,0.8,1.4,1.8,1
		c0.2-0.5,0.9-0.5,1-1.1c0-0.5,0.4-0.9,0.9-0.9c1-0.7,2-1.5,3.1-2.1c0.6-0.4,1.5-0.9,2.1-0.2s0.2,1.5-0.2,2.2
		c-0.9,1.8-2.4,3-3.7,4.5c-0.5,0.5-0.9,1.1-1.4,1.6c-0.6,0.7-0.1,1,0.4,1.2c1.4,0.2,2.5,1.2,2.9,2.6c0.6,0.7,1.2,1.3,1.7,2.1
		c0.4,0.6,1.1,1.2,0.4,2c-0.6,0.7-1.7,0.8-2.5,0.2c-1.6-1.1-3.2-2.4-4.7-3.7c-0.8-0.8-1.3-1-1.8,0.1c0,0.5-0.3,0.9-0.8,1
		c-2,2.2-3.6,4.8-6.2,6.6c-0.6-0.8,0.4-1.5,0.3-2.2c0.2-0.6,0-1.2,0.3-1.7c1.1-1.7,1.8-3.5,2.9-5.1c1.7-2.5,1.6-2.6-0.3-4.9
		C18.3,124.7,17,123.6,17,121.9z"/>
	<path class="st1" d="M120.4,130.5"/>
	<path class="st2" d="M76.6,166.8"/>
	<path class="st2" d="M3.9,158.6c5.1-0.5,10.3,0,15.3,1.4c13.9,4.6,14.1-3.8,32.8-3.1c4.5,0.1,8.9,0.7,13.2,1.9"/>
</g>
</svg>
