<svg xmlns="http://www.w3.org/2000/svg" viewBox="0 0 118.79 190.66"><defs><style>.cls-1{fill:#efe4cb;}.cls-2,.cls-3,.cls-4,.cls-6{fill:none;}.cls-2{stroke:#080908;stroke-width:2px;}.cls-2,.cls-4,.cls-6{stroke-miterlimit:10;}.cls-3,.cls-4{stroke:#231f20;stroke-width:3px;}.cls-3{stroke-linecap:round;stroke-linejoin:round;}.cls-5{fill:#050504;}.cls-6{stroke:#050504;stroke-width:4px;}</style></defs><g id="Lag_3" data-name="Lag 3"><path class="cls-1" d="M133.5,139a15.27,15.27,0,0,1-11.69-7c-1.35-2.17-1.37-6.87-1.36-16.19,0-7.48.32-9.47,1.85-10.49,2.46-1.62,6.9,0,8,.42,2.79,1,3.54,2.28,6,2.34,1.79,0,2.47-.6,4.45-1.07a15.48,15.48,0,0,1,8,.38,51.4,51.4,0,0,1,.39,16.09c-.66,4.86-1.1,7.83-3.49,10.63C141.1,139.41,133.87,139,133.5,139Z" transform="translate(-34.27 -2.63)"/><path class="cls-1" d="M83,191.79H50s-11.7-2.64-13.18-16.71-.75-13.56-.75-13.56,7.15-2.06,16.71,1.54,18.27-5.15,29.36-4S97,161.52,97,161.52v13.86s.36,15.2-14,16.41" transform="translate(-34.27 -2.63)"/><circle class="cls-2" cx="93.17" cy="116.28" r="1.89"/><circle class="cls-2" cx="100.76" cy="125.03" r="3.64"/><circle class="cls-2" cx="105.97" cy="112.54" r="2.49"/></g><g id="Lag_1" data-name="Lag 1"><path class="cls-3" d="M151.56,186.2a100.92,100.92,0,0,0-32.35.65" transform="translate(-34.27 -2.63)"/><path class="cls-3" d="M135,139.63c3-.28,7.07-1.19,9.72-4.25a8.8,8.8,0,0,0,1.33-2.1,43.22,43.22,0,0,0,3.8-16.73c0-7.56-.74-27.43-3.13-54.06H124.4c-1.6,19.52-2.84,37.11-4,53.3-.46,6.6-1,16.54,5.1,21.24a14,14,0,0,0,8.89,2.54l.9,44.69" transform="translate(-34.27 -2.63)"/><path class="cls-3" d="M129.33,82.27s-1.13,4.18-.78,6.72-.86,7.18-1.45,8.94" transform="translate(-34.27 -2.63)"/><path class="cls-4" d="M120.14,105.91a15.38,15.38,0,0,1,7.33-.89c5.48,1,9.85,3.91,13.26,2,2.38-1.35,6.34-.36,9.28.85" transform="translate(-34.27 -2.63)"/></g><g id="Lag_2" data-name="Lag 2"><path class="cls-4" d="M51.69,16.94V39.63c0,.67.06,1.68.08,2.9a113.64,113.64,0,0,1-2.68,26.21C45.46,85.59,43.81,88,41.17,100.4a236.79,236.79,0,0,0-4.34,31.92A309.22,309.22,0,0,0,36,170.48c.56,2.26,2,20.92,15.77,21.18,15.28.29,33,0,33,0S97.26,193.11,97,171.35c0-1.76,0-3.07-.06-3.78-4.59-48.12-9.53-66.66-9.53-66.66-4.66-17.5-6.89-19.24-8.93-32.68-1.34-8.75-1.67-16.4-2.09-26.91-.51-12.53-.45-22.92-.29-30.18,0,0,0-.11,0-.39s0-1.27,0-1.45A9.11,9.11,0,0,0,75,6c-1.26-2-5-1.33-12-1.54-6.51-.2-8.55-.92-10,.67-.82.93-1,2.53-1.24,5.71A43.34,43.34,0,0,0,51.69,16.94Z" transform="translate(-34.27 -2.63)"/><path class="cls-3" d="M81.82,111.71q2.79,18.44,5.57,36.87a65,65,0,0,1-41.49-2.37q-.67-17.21-1.36-34.39a48.32,48.32,0,0,0,14.38,3.49A49.38,49.38,0,0,0,81.82,111.71Z" transform="translate(-34.27 -2.63)"/><path class="cls-4" d="M51.77,11.57s12.54,7.12,24.3-.43L76.19,20S64,27.39,51.77,21.73Z" transform="translate(-34.27 -2.63)"/><path class="cls-5" d="M57.12,123.57c-.15-1.13.07-2.21,1.2-2.63s1.45,1,2.22,1.5c1.1.45,1.56,1.53,2.27,2.36.47.56.77,1.4,1.77,1,.18-.51.94-.52,1-1.14a1,1,0,0,1,.86-.93c1-.72,2-1.47,3.08-2.12.64-.39,1.45-.9,2.1-.19s.18,1.45-.15,2.15c-.87,1.8-2.42,3.05-3.68,4.53l-1.38,1.58c-.59.67-.13.95.44,1.19a3.62,3.62,0,0,1,2.89,2.59,23.88,23.88,0,0,1,1.73,2.06c.41.58,1.15,1.22.44,2a1.77,1.77,0,0,1-2.47.25,43.24,43.24,0,0,1-4.68-3.73c-.83-.78-1.27-1-1.82.12a1.16,1.16,0,0,1-.78,1c-2,2.25-3.59,4.83-6.18,6.6-.64-.84.42-1.48.3-2.24.16-.57,0-1.21.35-1.74,1.06-1.66,1.85-3.47,2.94-5.13,1.66-2.53,1.63-2.63-.28-4.93C58.46,126.39,57.12,125.33,57.12,123.57Z" transform="translate(-34.27 -2.63)"/><path class="cls-3" d="M149.47,133.12" transform="translate(-34.27 -2.63)"/><path class="cls-4" d="M108.43,169.46" transform="translate(-34.27 -2.63)"/><path class="cls-4" d="M35.72,161.24A39.88,39.88,0,0,1,51,162.69c13.93,4.64,14.08-3.78,32.8-3.05A60.18,60.18,0,0,1,97,161.49" transform="translate(-34.27 -2.63)"/><path class="cls-6" d="M44.55,88.7a74.76,74.76,0,0,0,39.54.93" transform="translate(-34.27 -2.63)"/><path class="cls-4" d="M-24.83,128" transform="translate(-34.27 -2.63)"/></g></svg>