<svg xmlns="http://www.w3.org/2000/svg" viewBox="0 0 123.42 190.66"><defs><style>.cls-1{fill:#edb1a6;}.cls-2,.cls-3{fill:none;stroke:#231f20;stroke-width:3px;}.cls-2{stroke-linecap:round;stroke-linejoin:round;}.cls-3{stroke-miterlimit:10;}.cls-4{fill:#050504;}</style></defs><g id="Lag_3" data-name="Lag 3"><path class="cls-1" d="M133.5,139c-2.9-.17-6.88-6.25-14.71-18.42-.62-.95-2-3.08-1.28-3.95.45-.58,1.6-.36,2.17-.26,11.58,2.13,11.53,1,16.09,3,2.08.91,3,1.79,4.69,1.5,2-.35,2.95-2.38,5.55-2,4.27.64,8.87,3.85,8.88,3.85h0a109.4,109.4,0,0,1-9.89,9.17C139.06,136.71,136.09,139.14,133.5,139Z" transform="translate(-33.46 -2.63)"/><path class="cls-1" d="M83,191.79H50s-11.7-2.64-13.18-16.71-.75-13.56-.75-13.56,7.15-2.06,16.71,1.54,18.27-5.15,29.36-4S97,161.52,97,161.52v13.86s.36,15.2-14,16.41" transform="translate(-33.46 -2.63)"/></g><g id="Lag_1" data-name="Lag 1"><path class="cls-2" d="M151.56,186.2a100.92,100.92,0,0,0-32.35.65" transform="translate(-33.46 -2.63)"/><path class="cls-2" d="M135,139.63c9.8-7.1,16.27-13.19,17.5-15a29.35,29.35,0,0,0,1.61-2.73,24.48,24.48,0,0,0,1.25-2.73c0-10.14-3.82-11.72-2.88-22.6.72-8.4,1.9-10.16,1.9-10.16l-38.18-.51c-.08.89,3,4.85,3.08,13.66.89,11.23-2.39,14.4-.51,21.06,2.88,10.23,11.2,16.3,15.65,19l.9,44.69" transform="translate(-33.46 -2.63)"/><path class="cls-2" d="M126.27,94s-1,3.28.19,5.52.16,5.9-.49,7.27" transform="translate(-33.46 -2.63)"/><path class="cls-3" d="M117.49,117.44a23.67,23.67,0,0,1,9.13-.66c6.73,1.21,12,4.21,16.33,2.38,3-1.28,7.86-.17,11.45,1.13" transform="translate(-33.46 -2.63)"/></g><g id="Lag_2" data-name="Lag 2"><path class="cls-3" d="M51.69,16.94V39.63c0,.67.06,1.68.08,2.9a113.64,113.64,0,0,1-2.68,26.21c-3,14-4.53,21-7.92,31.66-4.35,13.65-8.12,35.29-5.15,70.08,0,0,.5,20.89,15.77,21.18s33,0,33,0S97.26,193.11,97,171.35c0-1.76,0-3.07-.06-3.78-4.59-48.12-9.53-66.66-9.53-66.66-4.66-17.5-6.89-19.24-8.93-32.68-1.34-8.75-1.67-16.4-2.09-26.91-.51-12.53-.45-22.92-.29-30.18,0,0,0-.11,0-.39s0-1.27,0-1.45A9.11,9.11,0,0,0,75,6c-1.26-2-5-1.33-12-1.54-6.51-.2-8.55-.92-10,.67-.82.93-1,2.53-1.24,5.71A43.34,43.34,0,0,0,51.69,16.94Z" transform="translate(-33.46 -2.63)"/><path class="cls-2" d="M88.37,106.87q2.77,18.43,5.56,36.87a65.07,65.07,0,0,1-41.48-2.38q-.69-17.19-1.36-34.38a48.55,48.55,0,0,0,14.38,3.49A49.4,49.4,0,0,0,88.37,106.87Z" transform="translate(-33.46 -2.63)"/><path class="cls-3" d="M51.77,11.57s12.54,7.12,24.3-.43L76.19,20S64,27.39,51.77,21.73Z" transform="translate(-33.46 -2.63)"/><path class="cls-4" d="M66.32,121.34c-.15-1.14.07-2.22,1.2-2.64s1.45,1,2.22,1.5c1.1.46,1.56,1.53,2.27,2.37.47.55.76,1.39,1.77,1,.18-.51.94-.52,1-1.14a1.06,1.06,0,0,1,.86-.93c1-.71,2-1.47,3.09-2.12.64-.39,1.45-.89,2.1-.19s.18,1.46-.15,2.15c-.87,1.8-2.43,3-3.69,4.53-.45.54-.91,1.06-1.37,1.58-.6.68-.14.95.44,1.19a3.64,3.64,0,0,1,2.89,2.59c.58.69,1.22,1.33,1.73,2.06.4.58,1.15,1.23.43,2a1.77,1.77,0,0,1-2.46.24A44.41,44.41,0,0,1,74,131.85c-.83-.79-1.27-1-1.82.11a1.18,1.18,0,0,1-.78,1c-2,2.25-3.59,4.83-6.18,6.6-.64-.83.42-1.48.3-2.24.15-.57,0-1.21.35-1.73,1.06-1.66,1.85-3.48,2.94-5.13,1.66-2.53,1.63-2.64-.29-4.93C67.66,124.15,66.31,123.09,66.32,121.34Z" transform="translate(-33.46 -2.63)"/><path class="cls-2" d="M149.47,133.12" transform="translate(-33.46 -2.63)"/><path class="cls-3" d="M108.43,169.46" transform="translate(-33.46 -2.63)"/><path class="cls-3" d="M35.72,161.24A39.88,39.88,0,0,1,51,162.69c13.93,4.64,14.08-3.78,32.8-3.05A60.18,60.18,0,0,1,97,161.49" transform="translate(-33.46 -2.63)"/></g></svg>