<svg xmlns="http://www.w3.org/2000/svg" viewBox="0 0 132.66 190.66"><defs><style>.cls-1{fill:#561121;}.cls-2,.cls-3{fill:none;stroke:#231f20;stroke-width:3px;}.cls-2{stroke-linecap:round;stroke-linejoin:round;}.cls-3{stroke-miterlimit:10;}.cls-4{fill:#050504;}</style></defs><g id="Lag_3" data-name="Lag 3"><path class="cls-1" d="M53.8,144.16s-25.7-15-25.59-19.55,0-5.34,3.53-5.25,13.52-.07,21.65,3.88,8.1-1.12,13.26-.54,11.51,3.78,11.51,3.78L53.8,144.16" transform="translate(-26.71 -4.44)"/><path class="cls-1" d="M143.87,193.6H110.93S99.23,191,97.75,176.89,97,163.33,97,163.33s7.15-2.07,16.71,1.53,18.27-5.14,29.37-4,14.81,2.46,14.81,2.46v13.85s.35,15.21-14,16.42" transform="translate(-26.71 -4.44)"/></g><g id="Lag_1" data-name="Lag 1"><path class="cls-2" d="M70.44,191.36a101.34,101.34,0,0,0-32.36,0" transform="translate(-26.71 -4.44)"/><path class="cls-2" d="M54.84,144.47c16.73-10.33,21.77-16,23.2-18.06a4.6,4.6,0,0,0,.53-.88C77.55,100.71,70.44,85,70.44,85H38.08a85.53,85.53,0,0,0-9.87,39c0,7.11,26.05,20.31,26.05,20.31v44.7" transform="translate(-26.71 -4.44)"/><path class="cls-2" d="M42.26,93.52s.28,3.62-1.5,5.63-1.56,6-1.23,7.57" transform="translate(-26.71 -4.44)"/><path class="cls-3" d="M28.33,120.06c4-1,8.59-1.58,12.46-.72,9.14,2,16.25,6.77,22.2,4.11,4.13-1.85,10.73,0,15.58,2.07" transform="translate(-26.71 -4.44)"/></g><g id="Lag_2" data-name="Lag 2"><path class="cls-3" d="M112.59,18.75V41.43c0,1,0,1.94.09,2.9.14,2-.22,9.22-9.08,25.5-7,12.91-8.84,27-9.25,35.1a68.89,68.89,0,0,0,0,7l2.61,60.37s.5,20.9,15.78,21.19,33,0,33,0,12.48,1.45,12.19-20.32c0-1.19,0-2.45-.06-3.77-.32-18.95-1.26-50.6-1.58-61a44.63,44.63,0,0,1,.21-5.55c.4-4.12.34-13.92-6.41-26.33C141,60,137.26,55.32,137.26,43.13S137,12.94,137,12.94s0-.1,0-.39,0-1.27,0-1.44a8.85,8.85,0,0,0-1.11-3.29c-1.27-2-5-1.34-12-1.55-6.5-.2-8.55-.92-10,.68-.83.93-1,2.52-1.25,5.7A45.08,45.08,0,0,0,112.59,18.75Z" transform="translate(-26.71 -4.44)"/><path class="cls-2" d="M129.15,116.56l1,37.54a45.54,45.54,0,0,1-14,.58,42.43,42.43,0,0,1-19.33-7.17L95.12,105.8a33.91,33.91,0,0,0,7.48,5.67C113.18,117.43,124.71,116.94,129.15,116.56Z" transform="translate(-26.71 -4.44)"/><path class="cls-3" d="M112.67,13.38s12.55,7.11,24.3-.44l.13,8.86s-12.16,7.4-24.43,1.74Z" transform="translate(-26.71 -4.44)"/><path class="cls-4" d="M105.8,127.33c-.15-1.13.07-2.21,1.2-2.63s1.45,1,2.22,1.5c1.1.45,1.56,1.53,2.27,2.36.47.56.77,1.4,1.77,1,.18-.51.94-.52,1-1.14a1.05,1.05,0,0,1,.86-.93c1-.72,2-1.47,3.09-2.12.64-.39,1.45-.9,2.1-.19s.18,1.45-.15,2.15c-.87,1.8-2.42,3-3.69,4.53-.45.53-.91,1.06-1.37,1.58s-.13.95.44,1.19a3.62,3.62,0,0,1,2.89,2.59c.58.68,1.22,1.33,1.73,2.06.41.58,1.15,1.22.44,2a1.77,1.77,0,0,1-2.47.25,43.24,43.24,0,0,1-4.68-3.73c-.83-.78-1.27-1-1.82.12a1.15,1.15,0,0,1-.78.95c-2,2.26-3.59,4.84-6.18,6.61-.64-.84.42-1.48.3-2.24.16-.57,0-1.21.35-1.74,1.06-1.66,1.85-3.47,2.94-5.13,1.66-2.53,1.63-2.63-.29-4.93C107.14,130.15,105.8,129.09,105.8,127.33Z" transform="translate(-26.71 -4.44)"/><path class="cls-2" d="M69.42,138.25" transform="translate(-26.71 -4.44)"/><path class="cls-3" d="M169.33,171.26" transform="translate(-26.71 -4.44)"/><path class="cls-3" d="M96.62,163.05a40.11,40.11,0,0,1,15.25,1.44c13.93,4.65,14.07-3.77,32.79-3.05a61,61,0,0,1,13.22,1.85" transform="translate(-26.71 -4.44)"/></g></svg>