<svg id="Lag_1" data-name="Lag 1" xmlns="http://www.w3.org/2000/svg" viewBox="0 0 194.06 46.31"><defs><style>.cls-1{fill:#090907;}</style></defs><path class="cls-1" d="M37.36,118.82H26.62q-1.55-10.06-3.1-20.15l-.65,0c-1.39,6.6-2,13.34-3.18,20.1H8.93c-2.13-12-4.26-24-6.42-36.2H11.9q1.39,10.93,2.81,21.87l.46.08c1.11-7.29,2.21-14.59,3.34-22h9.3l3.3,22h.43c.94-7.29,1.88-14.57,2.84-22h9.38C41.63,94.57,39.51,106.63,37.36,118.82Z" transform="translate(-2.51 -81.57)"/><path class="cls-1" d="M82.1,82.46h8.83v36.41c-2.84,0-5.66,0-8.48,0-1.25,0-1.51-.9-1.86-1.71-2.85-6.46-6.39-12.61-9.15-19.21v20.79H62.62V82.5H73c2.92,6.6,6.41,13,9.13,19.75Z" transform="translate(-2.51 -81.57)"/><path class="cls-1" d="M174.13,101.85c-2-3.22-4.69-5.9-7-8.9a16.69,16.69,0,0,1-3.3-5.85,4.37,4.37,0,0,1,.81-4c1.59-2,2.77-2,4.46-.12,2.52,2.83,4.39,6.12,6.66,9.13A14.64,14.64,0,0,0,178.35,95c1.38-1.61,2.71-3.19,4-4.76a27.3,27.3,0,0,1,9-7.16,8.11,8.11,0,0,1,2.13-.72c1.7-.3,2.34.24,2.38,2a9,9,0,0,1-2.51,6.13c-3.12,3.61-6.32,7.16-9.48,10.74-.27.31-.51.64-.78,1,3.12,2.88,6.21,5.67,9.23,8.54a16.5,16.5,0,0,1,3.76,4.67c1.07,2.23.36,3.47-2.07,3.94a5.91,5.91,0,0,1-4.88-1.44c-3.08-2.33-5.9-4.94-8.76-7.52a7.33,7.33,0,0,0-2.37-1.74c-5.71,6.26-9.82,14.07-17.11,19.23-.67-1.53.06-2.54.5-3.55a159.83,159.83,0,0,1,12.21-21.59C173.78,102.48,173.94,102.18,174.13,101.85Z" transform="translate(-2.51 -81.57)"/><path class="cls-1" d="M117.78,103.72H106.35v8H119v7H96.69V82.5h21.93v6.92H106.37v7.12h11.41Z" transform="translate(-2.51 -81.57)"/><path class="cls-1" d="M145.39,82.5v7H133.18a43.72,43.72,0,0,0-.12,7.34h11.42V104H133.05v14.73h-9.63V82.5Z" transform="translate(-2.51 -81.57)"/><path class="cls-1" d="M56.83,118.77H47.42V82.5h9.41Z" transform="translate(-2.51 -81.57)"/><path class="cls-1" d="M149,82.39h9.43V118.7H149Z" transform="translate(-2.51 -81.57)"/></svg>